<svg data-v-423bf9ae="" xmlns="http://www.w3.org/2000/svg" viewBox="0 0 581 90" class="iconLeftSlogan"><!----><!----><!----><g data-v-423bf9ae="" id="022dc697-0511-438e-9a8b-37ae2b8c51ba" fill="#ffffff" transform="matrix(6.097560881055492,0,0,6.097560881055492,122.29489044584182,-19.390244247231145)"><path d="M3.30 13.02L3.30 13.02L2.67 13.02L2.67 13.02Q2.48 13.02 2.48 12.82L2.48 12.82L2.48 5.04L2.48 5.04Q2.48 4.91 2.34 4.91L2.34 4.91L0.43 4.91L0.43 4.91Q0.22 4.91 0.22 4.72L0.22 4.72L0.22 4.21L0.22 4.21Q0.22 4.02 0.43 4.02L0.43 4.02L5.54 4.02L5.54 4.02Q5.75 4.02 5.75 4.21L5.75 4.21L5.75 4.72L5.75 4.72Q5.75 4.91 5.54 4.91L5.54 4.91L3.64 4.91L3.64 4.91Q3.50 4.91 3.50 5.04L3.50 5.04L3.50 12.82L3.50 12.82Q3.50 13.02 3.30 13.02ZM7.77 13.02L7.77 13.02L7.14 13.02L7.14 13.02Q6.94 13.02 6.94 12.82L6.94 12.82L6.94 3.37L6.94 3.37Q6.94 3.18 7.14 3.18L7.14 3.18L7.77 3.18L7.77 3.18Q7.97 3.18 7.97 3.37L7.97 3.37L7.97 6.62L8.02 6.62L8.02 6.62Q8.37 5.88 9.45 5.88L9.45 5.88L10.23 5.88L10.23 5.88Q11.19 5.88 11.72 6.43L11.72 6.43L11.72 6.43Q12.25 6.97 12.25 7.95L12.25 7.95L12.25 12.82L12.25 12.82Q12.25 13.02 12.05 13.02L12.05 13.02L11.42 13.02L11.42 13.02Q11.23 13.02 11.23 12.82L11.23 12.82L11.23 7.99L11.23 7.99Q11.23 6.78 10.05 6.78L10.05 6.78L9.27 6.78L9.27 6.78Q8.64 6.78 8.30 7.11L8.30 7.11L8.30 7.11Q7.97 7.45 7.97 8.06L7.97 8.06L7.97 12.82L7.97 12.82Q7.97 13.02 7.77 13.02ZM19.01 13.02L19.01 13.02L16.04 13.02L16.04 13.02Q15.08 13.02 14.53 12.47L14.53 12.47L14.53 12.47Q13.97 11.93 13.97 10.95L13.97 10.95L13.97 7.95L13.97 7.95Q13.97 6.97 14.53 6.43L14.53 6.43L14.53 6.43Q15.08 5.88 16.04 5.88L16.04 5.88L17.22 5.88L17.22 5.88Q18.19 5.88 18.73 6.43L18.73 6.43L18.73 6.43Q19.28 6.97 19.28 7.95L19.28 7.95L19.28 9.73L19.28 9.73Q19.28 9.94 19.08 9.94L19.08 9.94L15.12 9.94L15.12 9.94Q14.98 9.94 14.98 10.07L14.98 10.07L14.98 10.92L14.98 10.92Q14.98 12.14 16.16 12.14L16.16 12.14L19.01 12.14L19.01 12.14Q19.21 12.14 19.21 12.33L19.21 12.33L19.21 12.84L19.21 12.84Q19.21 13.02 19.01 13.02ZM15.12 9.20L15.12 9.20L18.14 9.20L18.14 9.20Q18.28 9.20 18.28 9.06L18.28 9.06L18.28 7.98L18.28 7.98Q18.28 6.78 17.11 6.78L17.11 6.78L16.16 6.78L16.16 6.78Q14.98 6.78 14.98 7.98L14.98 7.98L14.98 9.06L14.98 9.06Q14.98 9.20 15.12 9.20ZM28.81 4.02L28.81 4.02L29.44 4.02L29.44 4.02Q29.62 4.02 29.62 4.20L29.62 4.20L29.62 10.95L29.62 10.95Q29.62 11.93 29.07 12.47L29.07 12.47L29.07 12.47Q28.52 13.02 27.57 13.02L27.57 13.02L26.17 13.02L26.17 13.02Q25.20 13.02 24.65 12.47L24.65 12.47L24.65 12.47Q24.09 11.91 24.09 10.95L24.09 10.95L24.09 9.74L24.09 9.74Q24.09 9.55 24.29 9.55L24.29 9.55L24.92 9.55L24.92 9.55Q25.12 9.55 25.12 9.74L25.12 9.74L25.12 10.91L25.12 10.91Q25.12 12.12 26.29 12.12L26.29 12.12L27.44 12.12L27.44 12.12Q28.62 12.12 28.62 10.91L28.62 10.91L28.62 4.21L28.62 4.21Q28.62 4.02 28.81 4.02ZM34.76 13.02L34.76 13.02L33.56 13.02L33.56 13.02Q32.59 13.02 32.04 12.47L32.04 12.47L32.04 12.47Q31.49 11.93 31.49 10.95L31.49 10.95L31.49 7.95L31.49 7.95Q31.49 6.97 32.04 6.43L32.04 6.43L32.04 6.43Q32.59 5.88 33.56 5.88L33.56 5.88L34.76 5.88L34.76 5.88Q35.73 5.88 36.28 6.43L36.28 6.43L36.28 6.43Q36.83 6.97 36.83 7.95L36.83 7.95L36.83 10.95L36.83 10.95Q36.83 11.93 36.28 12.47L36.28 12.47L36.28 12.47Q35.73 13.02 34.76 13.02ZM33.67 12.12L33.67 12.12L34.65 12.12L34.65 12.12Q35.83 12.12 35.83 10.92L35.83 10.92L35.83 7.98L35.83 7.98Q35.83 6.78 34.65 6.78L34.65 6.78L33.67 6.78L33.67 6.78Q32.49 6.78 32.49 7.98L32.49 7.98L32.49 10.92L32.49 10.92Q32.49 12.12 33.67 12.12ZM39.79 12.12L39.79 12.12L41.78 12.12L41.78 12.12Q42.97 12.12 42.97 10.91L42.97 10.91L42.97 7.91L42.97 7.91Q42.97 6.69 41.78 6.69L41.78 6.69L40.95 6.69L40.95 6.69Q40.32 6.69 39.98 7.03L39.98 7.03L39.98 7.03Q39.65 7.36 39.65 7.97L39.65 7.97L39.65 12.00L39.65 12.00Q39.65 12.12 39.79 12.12ZM38.63 12.82L38.63 12.82L38.63 3.37L38.63 3.37Q38.63 3.18 38.82 3.18L38.82 3.18L39.45 3.18L39.45 3.18Q39.65 3.18 39.65 3.37L39.65 3.37L39.65 6.54L39.70 6.54L39.70 6.54Q40.05 5.80 41.13 5.80L41.13 5.80L41.92 5.80L41.92 5.80Q42.87 5.80 43.42 6.34L43.42 6.34L43.42 6.34Q43.97 6.89 43.97 7.85L43.97 7.85L43.97 10.95L43.97 10.95Q43.97 11.93 43.42 12.47L43.42 12.47L43.42 12.47Q42.87 13.02 41.92 13.02L41.92 13.02L38.82 13.02L38.82 13.02Q38.63 13.02 38.63 12.82ZM50.29 13.02L50.29 13.02L49.66 13.02L49.66 13.02Q49.46 13.02 49.46 12.82L49.46 12.82L49.46 4.21L49.46 4.21Q49.46 4.02 49.66 4.02L49.66 4.02L50.29 4.02L50.29 4.02Q50.48 4.02 50.48 4.21L50.48 4.21L50.48 7.90L50.48 7.90Q50.48 8.02 50.62 8.02L50.62 8.02L54.10 8.02L54.10 8.02Q54.24 8.02 54.24 7.90L54.24 7.90L54.24 4.21L54.24 4.21Q54.24 4.02 54.43 4.02L54.43 4.02L55.06 4.02L55.06 4.02Q55.26 4.02 55.26 4.21L55.26 4.21L55.26 12.82L55.26 12.82Q55.26 13.02 55.06 13.02L55.06 13.02L54.43 13.02L54.43 13.02Q54.24 13.02 54.24 12.82L54.24 12.82L54.24 9.04L54.24 9.04Q54.24 8.92 54.10 8.92L54.10 8.92L50.62 8.92L50.62 8.92Q50.48 8.92 50.48 9.04L50.48 9.04L50.48 12.82L50.48 12.82Q50.48 13.02 50.29 13.02ZM60.06 13.02L60.06 13.02L59.28 13.02L59.28 13.02Q58.32 13.02 57.79 12.47L57.79 12.47L57.79 12.47Q57.26 11.93 57.26 10.95L57.26 10.95L57.26 6.08L57.26 6.08Q57.26 5.88 57.46 5.88L57.46 5.88L58.09 5.88L58.09 5.88Q58.28 5.88 58.28 6.08L58.28 6.08L58.28 10.91L58.28 10.91Q58.28 12.12 59.44 12.12L59.44 12.12L60.24 12.12L60.24 12.12Q60.87 12.12 61.21 11.79L61.21 11.79L61.21 11.79Q61.54 11.45 61.54 10.84L61.54 10.84L61.54 6.08L61.54 6.08Q61.54 5.88 61.74 5.88L61.74 5.88L62.37 5.88L62.37 5.88Q62.57 5.88 62.57 6.08L62.57 6.08L62.57 12.82L62.57 12.82Q62.57 13.02 62.37 13.02L62.37 13.02L61.74 13.02L61.74 13.02Q61.54 13.02 61.54 12.82L61.54 12.82L61.54 12.28L61.49 12.28L61.49 12.28Q61.14 13.02 60.06 13.02ZM65.32 13.02L65.32 13.02L64.69 13.02L64.69 13.02Q64.50 13.02 64.50 12.82L64.50 12.82L64.50 6.08L64.50 6.08Q64.50 5.88 64.69 5.88L64.69 5.88L65.32 5.88L65.32 5.88Q65.52 5.88 65.52 6.08L65.52 6.08L65.52 6.62L65.58 6.62L65.58 6.62Q65.93 5.88 67.00 5.88L67.00 5.88L67.79 5.88L67.79 5.88Q68.74 5.88 69.27 6.43L69.27 6.43L69.27 6.43Q69.80 6.97 69.80 7.95L69.80 7.95L69.80 12.82L69.80 12.82Q69.80 13.02 69.61 13.02L69.61 13.02L68.98 13.02L68.98 13.02Q68.78 13.02 68.78 12.82L68.78 12.82L68.78 7.99L68.78 7.99Q68.78 6.78 67.61 6.78L67.61 6.78L66.82 6.78L66.82 6.78Q66.19 6.78 65.86 7.11L65.86 7.11L65.86 7.11Q65.52 7.45 65.52 8.06L65.52 8.06L65.52 12.82L65.52 12.82Q65.52 13.02 65.32 13.02ZM71.93 6.78L71.93 6.78L71.16 6.78L71.16 6.78Q70.97 6.78 70.97 6.59L70.97 6.59L70.97 6.08L70.97 6.08Q70.97 5.88 71.16 5.88L71.16 5.88L71.93 5.88L71.93 5.88Q72.07 5.88 72.07 5.75L72.07 5.75L72.07 4.55L72.07 4.55Q72.07 4.35 72.27 4.35L72.27 4.35L72.90 4.35L72.90 4.35Q73.08 4.35 73.08 4.55L73.08 4.55L73.08 5.75L73.08 5.75Q73.08 5.88 73.23 5.88L73.23 5.88L74.72 5.88L74.72 5.88Q74.93 5.88 74.93 6.08L74.93 6.08L74.93 6.59L74.93 6.59Q74.93 6.78 74.72 6.78L74.72 6.78L73.23 6.78L73.23 6.78Q73.08 6.78 73.08 6.90L73.08 6.90L73.08 10.93L73.08 10.93Q73.08 12.12 74.31 12.12L74.31 12.12L74.86 12.12L74.86 12.12Q75.07 12.12 75.07 12.32L75.07 12.32L75.07 12.84L75.07 12.84Q75.07 13.02 74.86 13.02L74.86 13.02L74.19 13.02L74.19 13.02Q73.22 13.02 72.65 12.48L72.65 12.48L72.65 12.48Q72.07 11.94 72.07 10.98L72.07 10.98L72.07 6.90L72.07 6.90Q72.07 6.78 71.93 6.78Z"></path></g><!----><g data-v-423bf9ae="" id="e33bee28-9846-4953-be8b-c5c8ffd0345b" transform="matrix(1.0909090909090908,0,0,1.0909090909090908,-2.0454545454545396,-8.79090916026722)" stroke="none" fill="#FEE6FE"><switch><g><path d="M88.8 26.2H70.4v-4.6c0-7.1-5.8-12.9-12.9-12.9h-15c-7.1 0-12.9 5.8-12.9 12.9v4.6H11.1c-4.8 0-8.6 3.9-8.6 8.6v11.5c0 1.5 1.2 2.7 2.7 2.7h39.3v-2.1c0-1 .8-1.8 1.8-1.8h7.4c1 0 1.8.8 1.8 1.8V49h39.3c1.5 0 2.7-1.2 2.7-2.7V34.9c0-4.8-3.9-8.7-8.7-8.7zm-49.6-4.6c0-1.8 1.5-3.3 3.3-3.3h15c1.8 0 3.3 1.5 3.3 3.3v4.6H39.2v-4.6zM91 54H55.4c-.3 2.7-2.6 4.7-5.4 4.7-2.8 0-5-2.1-5.3-4.7H9c-1.5 0-2.7 1.2-2.7 2.7v25.9c0 4.8 3.9 8.6 8.6 8.6H85c4.8 0 8.7-3.9 8.7-8.7V56.7c0-1.5-1.2-2.7-2.7-2.7z"></path></g></switch></g><!----><g data-v-423bf9ae="" id="c8de2e16-283d-4c62-8213-a815c6570254" fill="#ffffff" transform="matrix(0.8712464202852839,0,0,0.8712464202852839,122.65185189405634,58.17038072613366)"><path d="M7.83 3.22L7.83 2.21L1.13 2.21L1.13 11.48L2.18 11.48L2.18 7.46L7.21 7.46L7.21 6.44L2.18 6.44L2.18 3.22ZM20.41 2.10C17.60 2.10 15.71 4.21 15.71 6.85C15.71 9.48 17.60 11.59 20.41 11.59C23.23 11.59 25.12 9.48 25.12 6.85C25.12 4.21 23.23 2.10 20.41 2.10ZM20.41 10.57C18.16 10.57 16.76 8.93 16.76 6.85C16.76 4.76 18.16 3.12 20.41 3.12C22.67 3.12 24.07 4.76 24.07 6.85C24.07 8.93 22.67 10.57 20.41 10.57ZM34.85 7.92L38.07 7.92L40.31 11.48L41.55 11.48L39.12 7.74C40.15 7.50 41.36 6.90 41.36 5.11C41.36 3.35 40.14 2.21 38.23 2.21L33.80 2.21L33.80 11.48L34.85 11.48ZM34.85 3.21L38.11 3.21C39.42 3.21 40.31 3.93 40.31 5.11C40.31 6.55 39.05 6.93 38.05 6.93L34.85 6.93ZM64.05 2.21L60.14 2.21L60.14 11.48L64.05 11.48C66.26 11.48 68.31 9.74 68.31 6.85C68.31 3.95 66.26 2.21 64.05 2.21ZM64.01 10.49L61.19 10.49L61.19 3.21L64.01 3.21C65.98 3.21 67.26 4.86 67.26 6.85C67.26 8.83 65.98 10.49 64.01 10.49ZM83.82 3.22L83.82 2.21L77 2.21L77 11.48L83.82 11.48L83.82 10.47L78.05 10.47L78.05 7.35L83.20 7.35L83.20 6.33L78.05 6.33L78.05 3.22ZM98.98 2.21L95.77 10.29L92.57 2.21L91.42 2.21L95.17 11.48L96.38 11.48L100.13 2.21ZM115.12 3.22L115.12 2.21L108.30 2.21L108.30 11.48L115.12 11.48L115.12 10.47L109.35 10.47L109.35 7.35L114.51 7.35L114.51 6.33L109.35 6.33L109.35 3.22ZM123.82 2.21L123.82 11.48L129.92 11.48L129.92 10.47L124.87 10.47L124.87 2.21ZM141.99 2.10C139.17 2.10 137.28 4.21 137.28 6.85C137.28 9.48 139.17 11.59 141.99 11.59C144.80 11.59 146.69 9.48 146.69 6.85C146.69 4.21 144.80 2.10 141.99 2.10ZM141.99 10.57C139.73 10.57 138.33 8.93 138.33 6.85C138.33 4.76 139.73 3.12 141.99 3.12C144.24 3.12 145.64 4.76 145.64 6.85C145.64 8.93 144.24 10.57 141.99 10.57ZM156.42 8.18L159.54 8.18C161.52 8.18 162.74 7.03 162.74 5.19C162.74 3.37 161.52 2.21 159.54 2.21L155.37 2.21L155.37 11.48L156.42 11.48ZM159.47 3.21C160.93 3.21 161.69 3.96 161.69 5.19C161.69 6.44 160.93 7.20 159.47 7.20L156.42 7.20L156.42 3.21ZM177.98 3.22L177.98 2.21L171.16 2.21L171.16 11.48L177.98 11.48L177.98 10.47L172.21 10.47L172.21 7.35L177.37 7.35L177.37 6.33L172.21 6.33L172.21 3.22ZM187.73 7.92L190.95 7.92L193.19 11.48L194.43 11.48L192.00 7.74C193.03 7.50 194.24 6.90 194.24 5.11C194.24 3.35 193.02 2.21 191.11 2.21L186.68 2.21L186.68 11.48L187.73 11.48ZM187.73 3.21L190.99 3.21C192.30 3.21 193.19 3.93 193.19 5.11C193.19 6.55 191.93 6.93 190.93 6.93L187.73 6.93ZM203.66 4.65C203.66 4.03 204.02 3.08 206.12 3.08C207.82 3.08 208.60 3.82 208.71 4.75L209.79 4.75C209.71 3.36 208.59 2.10 206.12 2.10C203.80 2.10 202.64 3.15 202.64 4.66C202.64 7.84 208.98 6.69 208.98 8.96C208.98 10.05 208.00 10.60 206.43 10.60C204.82 10.60 203.52 10.05 203.45 8.71L202.36 8.71C202.50 10.37 203.62 11.59 206.36 11.59C208.64 11.59 210.03 10.64 210.03 8.92C210.03 5.68 203.66 6.80 203.66 4.65ZM234.47 6.75C235.13 6.45 235.72 5.85 235.72 4.66C235.72 3.54 234.98 2.21 232.79 2.21L228.63 2.21L228.63 11.48L233.03 11.48C235.14 11.48 236.19 10.43 236.19 9.04C236.19 7.66 235.26 7 234.47 6.75ZM229.68 3.21L232.90 3.21C234.18 3.21 234.67 3.98 234.67 4.75C234.67 5.88 233.76 6.36 232.79 6.36L229.68 6.36ZM233.14 10.49L229.68 10.49L229.68 7.31L233.03 7.31C234.50 7.31 235.14 8.09 235.14 8.96C235.14 9.93 234.42 10.49 233.14 10.49ZM248.33 7.81L252.21 2.21L250.94 2.21L247.80 6.72L244.66 2.21L243.39 2.21L247.28 7.81L247.28 11.48L248.33 11.48ZM274.23 2.21L270.33 2.21L270.33 11.48L274.23 11.48C276.44 11.48 278.49 9.74 278.49 6.85C278.49 3.95 276.44 2.21 274.23 2.21ZM274.19 10.49L271.38 10.49L271.38 3.21L274.19 3.21C276.16 3.21 277.44 4.86 277.44 6.85C277.44 8.83 276.16 10.49 274.19 10.49ZM294.00 3.22L294.00 2.21L287.18 2.21L287.18 11.48L294.00 11.48L294.00 10.47L288.23 10.47L288.23 7.35L293.38 7.35L293.38 6.33L288.23 6.33L288.23 3.22ZM309.16 2.21L305.96 10.29L302.75 2.21L301.60 2.21L305.35 11.48L306.56 11.48L310.31 2.21ZM325.30 3.22L325.30 2.21L318.49 2.21L318.49 11.48L325.30 11.48L325.30 10.47L319.54 10.47L319.54 7.35L324.69 7.35L324.69 6.33L319.54 6.33L319.54 3.22ZM334.00 2.21L334.00 11.48L340.10 11.48L340.10 10.47L335.05 10.47L335.05 2.21ZM352.17 2.10C349.36 2.10 347.47 4.21 347.47 6.85C347.47 9.48 349.36 11.59 352.17 11.59C354.98 11.59 356.87 9.48 356.87 6.85C356.87 4.21 354.98 2.10 352.17 2.10ZM352.17 10.57C349.92 10.57 348.52 8.93 348.52 6.85C348.52 4.76 349.92 3.12 352.17 3.12C354.42 3.12 355.82 4.76 355.82 6.85C355.82 8.93 354.42 10.57 352.17 10.57ZM366.60 8.18L369.73 8.18C371.70 8.18 372.92 7.03 372.92 5.19C372.92 3.37 371.70 2.21 369.73 2.21L365.55 2.21L365.55 11.48L366.60 11.48ZM369.66 3.21C371.11 3.21 371.87 3.96 371.87 5.19C371.87 6.44 371.11 7.20 369.66 7.20L366.60 7.20L366.60 3.21ZM388.16 3.22L388.16 2.21L381.35 2.21L381.35 11.48L388.16 11.48L388.16 10.47L382.40 10.47L382.40 7.35L387.55 7.35L387.55 6.33L382.40 6.33L382.40 3.22ZM397.91 7.92L401.13 7.92L403.37 11.48L404.61 11.48L402.18 7.74C403.21 7.50 404.42 6.90 404.42 5.11C404.42 3.35 403.20 2.21 401.30 2.21L396.86 2.21L396.86 11.48L397.91 11.48ZM397.91 3.21L401.17 3.21C402.49 3.21 403.37 3.93 403.37 5.11C403.37 6.55 402.11 6.93 401.11 6.93L397.91 6.93ZM413.84 4.65C413.84 4.03 414.20 3.08 416.30 3.08C418.00 3.08 418.78 3.82 418.89 4.75L419.97 4.75C419.89 3.36 418.77 2.10 416.30 2.10C413.98 2.10 412.82 3.15 412.82 4.66C412.82 7.84 419.16 6.69 419.16 8.96C419.16 10.05 418.18 10.60 416.61 10.60C415.00 10.60 413.70 10.05 413.63 8.71L412.54 8.71C412.68 10.37 413.80 11.59 416.54 11.59C418.82 11.59 420.21 10.64 420.21 8.92C420.21 5.68 413.84 6.80 413.84 4.65Z"></path></g></svg>